<svg width="256" height="256" viewBox="0 0 33 33" fill="none" xmlns="http://www.w3.org/2000/svg">
  <g clip-path="url(#clip0_1545_14838)">
    <path d="M5.52936 9.25414V3.4703C5.52936 2.85672 5.7731 2.26826 6.20698 1.83439C6.64085 1.40052 7.22931 1.15677 7.84289 1.15677H19.4106L30.9782 12.7244V28.9192C30.9782 29.5328 30.7345 30.1212 30.3006 30.5551C29.8668 30.989 29.2783 31.2327 28.6647 31.2327H20.5673" stroke="#000001" stroke-width="2.31353" stroke-linecap="round" stroke-linejoin="round"/>
    <path d="M19.4106 1.15677V12.7244H30.9783" stroke="#000001" stroke-width="2.31353" stroke-linecap="round" stroke-linejoin="round"/>
    <path d="M8.42126 15.038V18.5083" stroke="#000001" stroke-width="2.31353" stroke-linecap="round" stroke-linejoin="round"/>
    <path d="M1.41119 19.0867L4.41879 20.8218" stroke="#000001" stroke-width="2.31353" stroke-linecap="round" stroke-linejoin="round"/>
    <path d="M1.41119 27.184L4.41879 25.4489" stroke="#000001" stroke-width="2.31353" stroke-linecap="round" stroke-linejoin="round"/>
    <path d="M8.42126 31.2327V27.7624" stroke="#000001" stroke-width="2.31353" stroke-linecap="round" stroke-linejoin="round"/>
    <path d="M15.4312 27.184L12.4236 25.4489" stroke="#000001" stroke-width="2.31353" stroke-linecap="round" stroke-linejoin="round"/>
    <path d="M15.4312 19.0867L12.4236 20.8218" stroke="#000001" stroke-width="2.31353" stroke-linecap="round" stroke-linejoin="round"/>
    <path d="M8.42126 27.7624C10.9767 27.7624 13.0483 25.6908 13.0483 23.1353C13.0483 20.5799 10.9767 18.5083 8.42126 18.5083C5.8658 18.5083 3.79419 20.5799 3.79419 23.1353C3.79419 25.6908 5.8658 27.7624 8.42126 27.7624Z" stroke="#000001" stroke-width="2.31353" stroke-linecap="round" stroke-linejoin="round"/>
  </g>
  <defs>
    <clipPath id="clip0_1545_14838">
      <rect width="32.3895" height="32.3895" fill="white"/>
    </clipPath>
  </defs>
</svg>
